<svg xmlns="http://www.w3.org/2000/svg" viewBox="0 0 512 512">
  <defs>
    <linearGradient id="bg" x1="0%" y1="0%" x2="100%" y2="100%">
      <stop offset="0%" style="stop-color:#0a4d8c"/>
      <stop offset="100%" style="stop-color:#1a7fd4"/>
    </linearGradient>
    <linearGradient id="drop" x1="0%" y1="0%" x2="0%" y2="100%">
      <stop offset="0%" style="stop-color:#ffffff"/>
      <stop offset="100%" style="stop-color:#b3ddf5"/>
    </linearGradient>
  </defs>
  <!-- Background circle -->
  <circle cx="256" cy="256" r="256" fill="url(#bg)"/>
  <!-- Water droplet -->
  <path d="M256 100 C256 100 160 220 160 300 C160 353 203 396 256 396 C309 396 352 353 352 300 C352 220 256 100 256 100Z" fill="url(#drop)" opacity="0.95"/>
  <!-- Splash lines -->
  <path d="M180 340 C160 355 135 350 125 335" stroke="#ffffff" stroke-width="8" fill="none" stroke-linecap="round" opacity="0.7"/>
  <path d="M332 340 C352 355 377 350 387 335" stroke="#ffffff" stroke-width="8" fill="none" stroke-linecap="round" opacity="0.7"/>
  <path d="M200 370 C190 390 170 395 155 385" stroke="#ffffff" stroke-width="6" fill="none" stroke-linecap="round" opacity="0.5"/>
  <path d="M312 370 C322 390 342 395 357 385" stroke="#ffffff" stroke-width="6" fill="none" stroke-linecap="round" opacity="0.5"/>
  <!-- Water shine highlight -->
  <ellipse cx="230" cy="250" rx="25" ry="40" fill="#ffffff" opacity="0.3" transform="rotate(-15 230 250)"/>
</svg>
