<svg xmlns="http://www.w3.org/2000/svg" viewBox="0 0 512 512">
  <defs>
    <linearGradient id="bg" x1="0%" y1="0%" x2="100%" y2="100%">
      <stop offset="0%" style="stop-color:#0a4d8c"/>
      <stop offset="100%" style="stop-color:#1a7fd4"/>
    </linearGradient>
    <linearGradient id="funnel" x1="0%" y1="0%" x2="0%" y2="100%">
      <stop offset="0%" style="stop-color:#ffffff"/>
      <stop offset="100%" style="stop-color:#cfe6f7"/>
    </linearGradient>
  </defs>
  <!-- Background circle -->
  <circle cx="256" cy="256" r="256" fill="url(#bg)"/>
  <!-- Leads dropping into the funnel -->
  <g fill="#9fd4f5">
    <circle cx="176" cy="108" r="22"/>
    <circle cx="256" cy="86" r="22"/>
    <circle cx="336" cy="108" r="22"/>
  </g>
  <!-- Funnel -->
  <path d="M126 160 h260 a14 14 0 0 1 11 22 l-96 122 v96 a12 12 0 0 1 -18 10 l-56 -34 a12 12 0 0 1 -6 -10 v-62 L115 182 a14 14 0 0 1 11 -22 Z" fill="url(#funnel)"/>
  <!-- Booked-job check bubble -->
  <circle cx="356" cy="364" r="78" fill="#2ecc71"/>
  <path d="M318 366 l28 28 52 -56" fill="none" stroke="#ffffff" stroke-width="20" stroke-linecap="round" stroke-linejoin="round"/>
</svg>
