<svg xmlns="http://www.w3.org/2000/svg" viewBox="0 0 512 512">
  <defs>
    <linearGradient id="bg" x1="0%" y1="0%" x2="100%" y2="100%">
      <stop offset="0%" style="stop-color:#0a4d8c"/>
      <stop offset="100%" style="stop-color:#1a7fd4"/>
    </linearGradient>
    <linearGradient id="sun" x1="0%" y1="0%" x2="0%" y2="100%">
      <stop offset="0%" style="stop-color:#ffe27a"/>
      <stop offset="100%" style="stop-color:#ffc11e"/>
    </linearGradient>
    <linearGradient id="cloud" x1="0%" y1="0%" x2="0%" y2="100%">
      <stop offset="0%" style="stop-color:#ffffff"/>
      <stop offset="100%" style="stop-color:#cfe6f7"/>
    </linearGradient>
  </defs>
  <!-- Background circle -->
  <circle cx="256" cy="256" r="256" fill="url(#bg)"/>
  <!-- Sun -->
  <circle cx="200" cy="190" r="62" fill="url(#sun)"/>
  <g stroke="#ffd34d" stroke-width="14" stroke-linecap="round">
    <line x1="200" y1="92" x2="200" y2="112"/>
    <line x1="128" y1="118" x2="142" y2="132"/>
    <line x1="102" y1="190" x2="122" y2="190"/>
    <line x1="128" y1="262" x2="142" y2="248"/>
    <line x1="272" y1="118" x2="258" y2="132"/>
  </g>
  <!-- Cloud -->
  <path d="M210 330 a58 58 0 0 1 112 -18 a48 48 0 0 1 14 94 H214 a44 44 0 0 1 -4 -76 Z" fill="url(#cloud)"/>
  <!-- Rain drops -->
  <g fill="#9fd4f5">
    <path d="M232 420 c0 0 -16 18 -16 28 a16 16 0 0 0 32 0 c0 -10 -16 -28 -16 -28Z"/>
    <path d="M292 420 c0 0 -16 18 -16 28 a16 16 0 0 0 32 0 c0 -10 -16 -28 -16 -28Z"/>
  </g>
</svg>
